<?xml version="1.0"?>
<svg xmlns="http://www.w3.org/2000/svg" xmlns:xlink="http://www.w3.org/1999/xlink" version="1.1" id="Capa_1" x="0px" y="0px" viewBox="0 0 512.005 512.005" style="enable-background:new 0 0 512.005 512.005;" xml:space="preserve" width="18px" height="18px"><g><path style="fill:#CFD8DC;" d="M458.679,0.005H181.345c-5.891,0-10.667,4.776-10.667,10.667v117.333H53.345  c-5.891,0-10.667,4.776-10.667,10.667v106.667c0,5.891,4.776,10.667,10.667,10.667h405.333c5.891,0,10.667-4.776,10.667-10.667  V10.671C469.345,4.78,464.57,0.005,458.679,0.005z" data-original="#CFD8DC"/><path style="fill:#B0BEC5;" d="M185.42,0.815c-3.985-1.654-8.574-0.745-11.627,2.304l-128,128  c-4.171,4.16-4.179,10.914-0.019,15.085c2.006,2.011,4.731,3.139,7.571,3.134h128c5.891,0,10.667-4.776,10.667-10.667v-128  C192.011,6.355,189.409,2.464,185.42,0.815z" data-original="#B0BEC5"/><path style="fill:#CFD8DC;" d="M53.345,320.005h405.333c5.891,0,10.667,4.776,10.667,10.667v170.667  c0,5.891-4.776,10.667-10.667,10.667H53.345c-5.891,0-10.667-4.776-10.667-10.667V330.671  C42.679,324.78,47.454,320.005,53.345,320.005z" data-original="#CFD8DC"/><g>
	<path style="fill:#455A64;" d="M96.012,298.671H53.345c-5.891,0-10.667-4.776-10.667-10.667c0-5.891,4.776-10.667,10.667-10.667   h42.667c5.891,0,10.667,4.776,10.667,10.667C106.679,293.896,101.903,298.671,96.012,298.671z" data-original="#455A64"/>
	<path style="fill:#455A64;" d="M224.012,298.671h-64c-5.891,0-10.667-4.776-10.667-10.667c0-5.891,4.776-10.667,10.667-10.667h64   c5.891,0,10.667,4.776,10.667,10.667C234.679,293.896,229.903,298.671,224.012,298.671z" data-original="#455A64"/>
	<path style="fill:#455A64;" d="M352.012,298.671h-64c-5.891,0-10.667-4.776-10.667-10.667c0-5.891,4.776-10.667,10.667-10.667h64   c5.891,0,10.667,4.776,10.667,10.667C362.679,293.896,357.903,298.671,352.012,298.671z" data-original="#455A64"/>
	<path style="fill:#455A64;" d="M458.679,298.671h-42.667c-5.891,0-10.667-4.776-10.667-10.667c0-5.891,4.776-10.667,10.667-10.667   h42.667c5.891,0,10.667,4.776,10.667,10.667C469.345,293.896,464.57,298.671,458.679,298.671z" data-original="#455A64"/>
</g><path style="fill:#2196F3;" d="M421.495,385.519l-106.667-64c-5.055-3.025-11.605-1.38-14.63,3.675  c-1.299,2.17-1.784,4.731-1.37,7.226l21.333,128c0.808,4.831,4.802,8.491,9.685,8.875h0.853c4.589-0.003,8.662-2.942,10.112-7.296  l18.88-56.661h56.32c5.891,0.002,10.668-4.772,10.67-10.663C426.684,390.923,424.714,387.447,421.495,385.519z" data-original="#2196F3"/><path d="M458.679,256.005c-5.891,0-10.667-4.776-10.667-10.667v-224H185.761L64.012,143.087v102.251  c0,5.891-4.776,10.667-10.667,10.667s-10.667-4.776-10.667-10.667V138.671c-0.005-2.831,1.115-5.548,3.115-7.552l128-128  c2.004-1.999,4.721-3.12,7.552-3.115h277.333c5.891,0,10.667,4.776,10.667,10.667v234.667  C469.345,251.229,464.57,256.005,458.679,256.005z" data-original="#000000" class="active-path"/><path d="M181.345,149.338h-128c-5.891,0-10.667-4.776-10.667-10.667s4.776-10.667,10.667-10.667h117.333V10.671  c0-5.891,4.776-10.667,10.667-10.667s10.667,4.776,10.667,10.667v128C192.012,144.562,187.236,149.338,181.345,149.338z" data-original="#000000" class="active-path"/><path d="M458.679,512.005H53.345c-5.891,0-10.667-4.776-10.667-10.667V330.671c0-5.891,4.776-10.667,10.667-10.667  s10.667,4.776,10.667,10.667v160h384v-160c0-5.891,4.776-10.667,10.667-10.667s10.667,4.776,10.667,10.667v170.667  C469.345,507.229,464.57,512.005,458.679,512.005z" data-original="#000000" class="active-path"/><path d="M96.012,298.671H53.345c-5.891,0-10.667-4.776-10.667-10.667c0-5.891,4.776-10.667,10.667-10.667h42.667  c5.891,0,10.667,4.776,10.667,10.667C106.679,293.896,101.903,298.671,96.012,298.671z" data-original="#000000" class="active-path"/><path d="M224.012,298.671h-64c-5.891,0-10.667-4.776-10.667-10.667c0-5.891,4.776-10.667,10.667-10.667h64  c5.891,0,10.667,4.776,10.667,10.667C234.679,293.896,229.903,298.671,224.012,298.671z" data-original="#000000" class="active-path"/><path d="M352.012,298.671h-64c-5.891,0-10.667-4.776-10.667-10.667c0-5.891,4.776-10.667,10.667-10.667h64  c5.891,0,10.667,4.776,10.667,10.667C362.679,293.896,357.903,298.671,352.012,298.671z" data-original="#000000" class="active-path"/><path d="M458.679,298.671h-42.667c-5.891,0-10.667-4.776-10.667-10.667c0-5.891,4.776-10.667,10.667-10.667h42.667  c5.891,0,10.667,4.776,10.667,10.667C469.345,293.896,464.57,298.671,458.679,298.671z" data-original="#000000" class="active-path"/><path d="M330.679,469.338h-0.853c-4.883-0.384-8.877-4.044-9.685-8.875l-21.333-128c-0.966-5.811,2.962-11.305,8.774-12.271  c2.495-0.415,5.056,0.071,7.226,1.37l106.667,64c5.031,3.065,6.625,9.628,3.561,14.659c-1.92,3.152-5.332,5.087-9.022,5.117h-56.32  l-18.901,56.704C339.34,466.396,335.268,469.335,330.679,469.338z M323.66,351.685l10.475,62.848l7.765-23.253  c1.458-4.346,5.528-7.274,10.112-7.275h25.493L323.66,351.685z" data-original="#000000" class="active-path"/></g> </svg>
