<svg version="1.1" viewBox="0 0 20 20" data-tags="text-box">    <g fill="#444" transform="scale(0.01953125 0.01953125)">        <path d="M0 0h307.2v307.2h-307.2v-307.2zM102.4 102.4v102.4h102.4v-102.4h-102.4zM716.8 0h307.2v307.2h-307.2v-307.2zM819.2 102.4v102.4h102.4v-102.4h-102.4zM716.8 716.8h307.2v307.2h-307.2v-307.2zM819.2 819.2v102.4h102.4v-102.4h-102.4zM0 716.8h307.2v307.2h-307.2v-307.2zM102.4 819.2v102.4h102.4v-102.4h-102.4zM307.2 102.4h409.6v102.4h-409.6v-102.4zM307.2 819.2h409.6v102.4h-409.6v-102.4zM819.2 307.2h102.4v409.6h-102.4v-409.6zM102.4 307.2h102.4v409.6h-102.4v-409.6zM358.4 358.4h307.2v102.4h-307.2v-102.4zM460.8 460.8h102.4v204.8h-102.4v-204.8z"/>    </g></svg>